<svg width="32" height="32" viewBox="0 0 32 32" fill="none" xmlns="http://www.w3.org/2000/svg">
<path d="M16.0001 29.3337C23.3639 29.3337 29.3334 23.3641 29.3334 16.0003C29.3334 8.63653 23.3639 2.66699 16.0001 2.66699C8.63628 2.66699 2.66675 8.63653 2.66675 16.0003C2.66675 23.3641 8.63628 29.3337 16.0001 29.3337Z" stroke="#1D222A" stroke-width="2" stroke-linejoin="round"/>
<path d="M16.0001 29.3337C21.1547 29.3337 25.3334 25.155 25.3334 20.0003C25.3334 14.8457 21.1547 10.667 16.0001 10.667C10.8454 10.667 6.66675 14.8457 6.66675 20.0003C6.66675 25.155 10.8454 29.3337 16.0001 29.3337Z" stroke="#1D222A" stroke-width="2" stroke-linejoin="round"/>
<path d="M16.0001 29.3337C18.9456 29.3337 21.3334 26.9459 21.3334 24.0003C21.3334 21.0548 18.9456 18.667 16.0001 18.667C13.0545 18.667 10.6667 21.0548 10.6667 24.0003C10.6667 26.9459 13.0545 29.3337 16.0001 29.3337Z" stroke="#1D222A" stroke-width="2" stroke-linejoin="round"/>
</svg>
