<svg width="32" height="32" viewBox="0 0 32 32" fill="none" xmlns="http://www.w3.org/2000/svg">
<path d="M16.0001 19.3337C17.841 19.3337 19.3334 17.8413 19.3334 16.0003C19.3334 14.1594 17.841 12.667 16.0001 12.667C14.1591 12.667 12.6667 14.1594 12.6667 16.0003C12.6667 17.8413 14.1591 19.3337 16.0001 19.3337Z" stroke="#1D222A" stroke-width="2" stroke-linecap="round" stroke-linejoin="round"/>
<path d="M15.6666 29.3337C11.0642 29.3337 7.33325 25.6027 7.33325 21.0003C7.33325 16.3979 11.0642 12.667 15.6666 12.667" stroke="#1D222A" stroke-width="2" stroke-linecap="round" stroke-linejoin="round"/>
<path d="M29.3334 15.667C29.3334 20.2694 25.6025 24.0003 21.0001 24.0003C16.3977 24.0003 12.6667 20.2694 12.6667 15.667" stroke="#1D222A" stroke-width="2" stroke-linecap="round" stroke-linejoin="round"/>
<path d="M15.6667 19.3337C20.2691 19.3337 24.0001 15.6027 24.0001 11.0003C24.0001 6.39795 20.2691 2.66699 15.6667 2.66699" stroke="#1D222A" stroke-width="2" stroke-linecap="round" stroke-linejoin="round"/>
<path d="M19.3334 15.6663C19.3334 11.0639 15.6025 7.33301 11.0001 7.33301C6.39771 7.33301 2.66675 11.0639 2.66675 15.6663" stroke="#1D222A" stroke-width="2" stroke-linecap="round" stroke-linejoin="round"/>
</svg>
