<svg width="182" height="80" viewBox="0 0 182 80" fill="none" xmlns="http://www.w3.org/2000/svg">
<path d="M62.8482 7.4784C62.6982 7.47792 62.5484 7.48707 62.3996 7.50578C60.0431 7.92956 57.695 8.40333 55.329 8.76521C53.921 8.98067 52.4868 9.03186 51.0634 9.13304C50.7356 9.15685 50.3696 9.20804 50.0885 8.9152C50.1363 8.55332 50.4437 8.45095 50.6758 8.345C51.7392 7.86052 52.7966 7.34865 53.8983 6.96772C55.1208 6.54513 56.3804 6.2154 57.64 5.91542C59.1244 5.56187 60.6269 5.28213 62.1209 4.97025C63.3051 4.72265 64.4869 4.4691 65.6735 4.23221C66.2214 4.12269 66.7776 4.04651 67.3291 3.95723C69.0595 3.67749 70.7908 3.39854 72.5229 3.12038C73.7167 2.92873 74.9093 2.71684 76.1078 2.55614C77.127 2.41924 78.1557 2.34782 79.1772 2.23235C79.4978 2.19545 79.8088 2.08475 80.1294 2.04784C81.4368 1.89666 82.7455 1.76215 84.0541 1.61811C84.657 1.55145 85.2574 1.46931 85.8603 1.4086C87.0457 1.28957 88.2395 1.23005 89.4154 1.05506C90.8807 0.837217 92.3568 0.81698 93.8245 0.678895C94.2743 0.636041 94.7049 0.689609 95.1415 0.665801C95.5937 0.640803 96.0434 0.591997 96.4944 0.547952C97.309 0.468196 98.1224 0.374156 98.9382 0.303923C99.2169 0.280115 99.5004 0.313446 99.7815 0.311065C100.616 0.301542 101.466 0.376536 102.283 0.251545C103.528 0.0610831 104.767 0.246784 106.005 0.159885C106.651 0.114651 107.294 0.0337042 107.939 0.000373282C108.219 -0.00366686 108.498 0.025101 108.771 0.0860813C109.114 0.150362 109.445 0.226547 109.779 0.0408465C109.878 0.0107063 109.983 0.00418214 110.085 0.0218003C111.981 0.0491792 113.881 0.151553 115.773 0.0825102C117.146 0.0325138 118.507 0.237261 119.879 0.151553C120.172 0.133697 120.492 0.220595 120.814 0.231309C122.148 0.272972 123.479 0.393202 124.813 0.474148C125.09 0.490814 125.375 0.425342 125.649 0.458673C127.432 0.671753 129.215 0.888404 130.993 1.12886C131.862 1.24671 132.721 1.42646 133.586 1.56812C134.635 1.73953 135.69 1.88357 136.736 2.07284C137.62 2.23235 138.496 2.44543 139.376 2.62518C140.157 2.78469 140.943 2.92397 141.724 3.08467C141.911 3.13688 142.094 3.20008 142.272 3.27394C142.373 3.30728 142.488 3.37275 142.577 3.34894C143.093 3.21562 143.547 3.37989 144.025 3.55011C144.47 3.70844 144.951 3.76438 145.411 3.88342C145.805 3.98461 146.189 4.12031 146.581 4.22388C147.303 4.41315 148.031 4.58932 148.756 4.77026C148.982 4.82621 149.211 4.87264 149.435 4.9393C150.274 5.19047 151.112 5.44164 151.946 5.70472C152.6 5.91066 153.252 6.12651 153.902 6.35229C154.242 6.47014 154.571 6.62251 154.91 6.7475C155.533 6.97963 156.158 7.20699 156.783 7.42959C157.41 7.6522 158.081 7.77838 158.598 8.24263C159.644 8.43309 160.477 9.13423 161.49 9.43064C162.028 9.58777 162.494 9.98179 163 10.2556C163.695 10.6317 164.384 11.021 165.099 11.3555C166.278 11.9078 167.415 12.5233 168.452 13.3149C168.917 13.6619 169.4 13.9834 169.901 14.2779C170.148 14.4279 170.494 14.4469 170.696 14.6326C171.658 15.5147 172.806 16.1694 173.745 17.0646C174.474 17.7586 175.263 18.3883 175.963 19.1049C176.745 19.9247 177.485 20.7832 178.179 21.6774C178.629 22.243 179.044 22.8349 179.423 23.4499C180.478 25.1545 180.91 26.0854 181.374 27.9341C181.586 28.7792 181.819 29.6185 181.812 30.5029C181.811 30.6958 182.005 30.891 182 31.0826C181.971 31.4222 181.917 31.7592 181.838 32.0909C181.797 32.2572 181.764 32.4257 181.74 32.5956C181.681 33.4706 181.648 34.3479 181.568 35.2216C181.542 35.5073 181.381 35.7775 181.313 36.062C181.166 36.6846 181.068 37.3203 180.897 37.9357C180.669 38.7595 180.386 39.5689 180.135 40.3867C180.044 40.6819 180.011 40.9986 179.891 41.2795C179.531 42.1235 179.16 42.9639 178.757 43.7888C178.497 44.3221 178.179 44.8269 177.88 45.3411C177.72 45.6173 177.527 45.8756 177.38 46.1577C176.868 47.1469 176.112 47.9588 175.432 48.8242C174.941 49.4492 174.456 50.0777 173.964 50.7026C173.844 50.8538 173.714 50.9955 173.582 51.1383C173.19 51.5633 172.807 51.999 172.398 52.4073C172.093 52.7108 171.744 52.9703 171.432 53.2667C171.08 53.6012 170.757 53.9667 170.406 54.3024C169.991 54.7011 169.572 55.0975 169.133 55.4689C168.497 56.0058 167.896 56.6141 167.179 57.0141C166.587 57.345 166.121 57.8009 165.585 58.1807C164.756 58.7675 163.933 59.3663 163.077 59.9115C162.465 60.3019 161.798 60.6043 161.164 60.9626C160.796 61.1697 160.394 61.3566 160.105 61.6483C159.647 62.1101 159.015 62.203 158.496 62.528C158.007 62.8351 157.457 63.0458 156.935 63.3017C156.388 63.5695 155.8 63.7779 155.307 64.1231C154.75 64.5135 154.124 64.7349 153.534 65.0421C153.025 65.3075 152.54 65.6873 151.998 65.8051C151.527 65.9075 151.16 66.217 150.689 66.2777C150.528 66.2979 150.38 66.4229 150.23 66.5062C150.146 66.571 150.056 66.6291 149.963 66.68C148.87 67.0824 147.774 67.474 146.684 67.88C146.446 67.9692 146.232 68.1168 146 68.224C145.376 68.5109 144.713 68.6739 144.057 68.868C143.506 69.0299 142.965 69.2334 142.433 69.4489C141.458 69.8394 140.456 70.1573 139.434 70.4C138.831 70.5464 138.244 70.7547 137.65 70.9381C137.588 70.9571 137.531 71.019 137.473 71.0166C136.608 70.9809 135.913 71.5345 135.099 71.6904C134.235 71.8559 133.395 72.1427 132.538 72.3475C132.142 72.4427 131.726 72.451 131.325 72.5308C131.035 72.5891 130.759 72.7117 130.473 72.7879C129.767 72.976 129.062 73.1629 128.352 73.3331C127.712 73.4867 127.071 73.6355 126.425 73.7581C125.642 73.9069 124.876 74.12 124.076 74.2188C123.019 74.3497 121.99 74.7033 120.94 74.9092C119.973 75.0985 118.989 75.1997 118.021 75.3818C117.607 75.4592 117.207 75.5877 116.78 75.6484C115.731 75.7949 114.694 76.0317 113.651 76.2246C113.483 76.2555 113.304 76.2424 113.134 76.2686C112.755 76.3281 112.378 76.4043 111.999 76.4674C111.639 76.5269 111.277 76.5817 110.916 76.6341C110.466 76.6995 110.015 76.7567 109.566 76.8269C108.819 76.9448 108.073 77.0769 107.326 77.1912C106.941 77.2495 106.551 77.2817 106.163 77.3221C106.077 77.3316 105.98 77.2995 105.904 77.3281C104.872 77.7102 103.766 77.5781 102.707 77.7935C101.89 77.9602 101.047 77.9971 100.216 78.0983C99.7253 78.1578 99.2384 78.2506 98.7468 78.2971C97.0638 78.4589 95.3772 78.6018 93.6941 78.7673C93.4501 78.7911 93.2121 78.9589 92.974 78.9518C92.702 78.9382 92.4292 78.9502 92.1594 78.9875C91.523 79.0839 90.8675 79.0565 90.2216 79.0982C89.7706 79.1268 89.3221 79.1922 88.8723 79.2291C88.0709 79.2958 87.2694 79.3946 86.4668 79.4041C85.889 79.4101 85.3292 79.3732 84.7562 79.5529C84.3771 79.672 83.9416 79.6231 83.5302 79.6315C82.4165 79.6553 81.3029 79.6672 80.1904 79.6946C80.0529 79.6981 79.8651 79.7231 79.7909 79.8124C79.6737 79.9529 79.5971 79.8957 79.4643 79.8731C79.1257 79.8101 78.7824 79.7755 78.438 79.7696C77.6461 79.7648 76.8531 79.7696 76.0612 79.8029C75.2227 79.8398 74.3853 79.9148 73.5468 79.9731C73.4834 79.9884 73.4175 79.9908 73.353 79.9803C72.737 79.7243 72.1174 79.9077 71.5037 79.9707C71.1182 80.0225 70.7266 80.0055 70.347 79.9207C69.9607 79.8267 69.5312 79.9077 69.1209 79.9124C68.2836 79.9231 67.4475 79.9481 66.6102 79.941C65.7525 79.9338 64.896 79.8898 64.0384 79.8767C63.1137 79.8624 62.1723 79.9684 61.2692 79.8267C60.5886 79.7196 59.9079 79.8529 59.2213 79.6434C58.6914 79.4827 58.0682 79.6243 57.4869 79.6327C57.3373 79.635 57.1866 79.6612 57.0383 79.6505C55.9091 79.572 54.7811 79.441 53.6519 79.4232C53.0646 79.4136 52.506 79.3029 51.9342 79.2327C51.2739 79.1517 50.6064 79.1291 49.9425 79.0815C49.3588 79.0399 48.7739 79.0137 48.1913 78.9541C47.2978 78.8637 46.4078 78.7089 45.5119 78.6637C45.0406 78.6399 44.5669 78.5006 44.1231 78.528C43.2032 78.5839 42.3444 78.2804 41.4473 78.2375C41.0693 78.2197 40.6996 78.0649 40.3216 78.0006C40.0537 77.9554 39.775 77.9697 39.5047 77.9328C39.1901 77.8899 38.8791 77.8161 38.5645 77.7638C38.0046 77.6697 37.4444 77.5781 36.8838 77.4888C35.9317 77.3376 35.0214 76.9781 34.0405 76.9495C33.6601 76.9388 33.2857 76.7912 32.9053 76.7186C31.879 76.5234 30.8503 76.3353 29.8228 76.1424C29.7186 76.1221 29.616 76.095 29.5153 76.0615C29.044 75.9115 28.5835 75.7544 28.0691 75.7544C27.7139 75.7544 27.3562 75.6032 27.0022 75.5139C26.6301 75.4211 26.2797 75.2568 25.8706 75.3068C25.6995 75.3282 25.5105 75.1842 25.3263 75.1282C24.422 74.8556 23.5308 74.4723 22.605 74.3521C21.8 74.2473 21.081 73.9438 20.3251 73.7343C19.1377 73.3913 17.9694 72.986 16.825 72.5201C16.1265 72.2439 15.4291 71.9654 14.7293 71.6916C14.2915 71.5202 13.837 71.3833 13.4135 71.1809C12.6193 70.8036 11.8286 70.4155 11.063 69.9858C10.1838 69.4929 9.33214 68.9489 8.4697 68.4275C8.17902 68.2514 7.87639 68.0907 7.59768 67.8978C6.86442 67.3907 6.09647 66.9205 5.42421 66.342C4.79861 65.8039 4.27827 65.1444 3.71248 64.5373C3.65386 64.4743 3.60003 64.4064 3.53664 64.3493C2.98976 63.8605 2.53839 63.2753 2.20529 62.6232C1.94452 62.1125 1.54021 61.6756 1.27107 61.1673C0.780632 60.24 0.390676 59.2711 0.2579 58.2164C0.233976 58.0247 0.161009 57.839 0.12632 57.6474C0.0748839 57.3712 -0.0243993 57.0867 0.00550529 56.8177C0.133497 55.6927 0.175363 54.5571 0.47082 53.4512C0.779435 52.2942 1.07848 51.1324 1.55217 50.0312C1.86437 49.3051 2.24596 48.6064 2.61677 47.9052C3.03544 47.1136 3.46766 46.3295 3.91343 45.553C4.10363 45.2197 4.33928 44.9114 4.55339 44.5912C5.0522 43.8436 5.5534 43.096 6.04982 42.3461C6.45054 41.7414 6.84408 41.1307 7.25078 40.5296C7.36811 40.3752 7.4939 40.2273 7.62758 40.0867C7.75079 39.9403 7.90868 39.8106 7.98883 39.6439C8.4039 38.7797 9.06659 38.1059 9.67904 37.3905C10.0714 36.9322 10.3357 36.3882 10.7556 35.937C11.6623 34.9633 12.459 33.8848 13.38 32.9254C14.508 31.7516 15.7078 30.6458 16.8956 29.5292C17.4435 29.0149 18.0176 28.5257 18.6085 28.0614C19.5703 27.3067 20.5559 26.5818 21.5296 25.8425C21.8 25.6366 22.0523 25.4057 22.3335 25.214C23.5021 24.42 24.6732 23.6272 25.8562 22.8547C26.4292 22.4797 27.0333 22.1523 27.6206 21.7976C28.4483 21.2976 29.2677 20.7846 30.0991 20.2929C30.544 20.0299 31.0046 19.793 31.4627 19.5525C32.867 18.8169 34.2654 18.0681 35.6828 17.3586C36.4089 16.9956 37.1769 16.7134 37.9197 16.3801C38.9771 15.9052 40.0178 15.3909 41.0872 14.9433C42.1183 14.51 43.1757 14.141 44.22 13.741C45.5274 13.2411 46.8301 12.7244 48.1435 12.24C49.2404 11.8364 50.3469 11.4579 51.4557 11.0877C53.0933 10.5401 54.7309 9.98774 56.3804 9.47587C58.1376 8.93068 59.9067 8.42833 61.6723 7.9117C62.0623 7.79743 62.4582 7.69981 62.8506 7.59506C62.8494 7.55458 62.8482 7.5153 62.8458 7.47483L62.8482 7.4784ZM88.5051 4.32149C88.5027 4.35244 88.5015 4.38339 88.4991 4.41434C89.0171 4.60242 89.5434 4.76907 90.0482 4.9881C90.2599 5.08849 90.4408 5.24344 90.5721 5.43688C90.6074 5.50919 90.6253 5.58872 90.6242 5.66912C90.6232 5.74951 90.6033 5.82856 90.5661 5.89994C90.5167 5.96285 90.4543 6.01444 90.3831 6.05121C90.3119 6.08797 90.2335 6.10906 90.1534 6.11302C89.9429 6.11421 89.7336 6.02017 89.5218 5.97375C88.0816 5.6571 86.6342 5.24999 85.1582 5.33213C83.4105 5.42974 81.6701 5.6952 79.9308 5.92494C78.4536 6.12017 76.9811 6.34991 75.5121 6.59989C73.8471 6.8844 72.1784 7.16057 70.5324 7.53078C68.7418 7.93432 66.9702 8.42476 65.1987 8.90925C63.8027 9.29017 62.4175 9.71276 61.0312 10.1282C60.2644 10.358 59.5048 10.6091 58.7417 10.8496C57.5455 11.2269 56.3421 11.5805 55.1567 11.9888C53.8612 12.4352 52.5849 12.934 51.3002 13.4101C50.4318 13.7327 49.5586 14.0446 48.6949 14.3803C47.8097 14.7255 46.9341 15.0957 46.0538 15.4552C45.3755 15.7326 44.6937 16.004 44.0178 16.2873C43.3193 16.5801 42.6279 16.8872 41.9305 17.1836C40.8611 17.6396 39.7786 18.0657 38.7235 18.5526C37.8121 18.974 36.9484 19.499 36.0345 19.9168C34.2052 20.7717 32.4403 21.7567 30.7534 22.8642C29.5644 23.6308 28.318 24.3046 27.1876 25.1759C26.4471 25.7473 25.5715 26.1509 24.8299 26.7484C24.2139 27.2436 23.5416 27.6686 22.916 28.1531C22.0308 28.8387 21.2102 29.6185 20.2784 30.2315C19.4483 30.7779 18.8729 31.56 18.1337 32.1814C17.8321 32.4271 17.5454 32.6903 17.2748 32.9694C16.5403 33.7515 15.8178 34.5467 15.0965 35.3407C14.4769 36.0239 13.8071 36.6727 13.2676 37.4143C12.7317 38.1488 12.0726 38.7773 11.563 39.5296C11.142 40.151 10.758 40.8034 10.1982 41.3212C10.1838 41.3343 10.1814 41.3616 10.1707 41.3795C9.96731 41.7069 9.77712 42.0437 9.55702 42.3604C9.08334 43.046 8.58812 43.7162 8.11443 44.4019C7.78548 44.8792 7.48045 45.3721 7.16227 45.8566C6.19814 47.3291 5.2711 48.8206 4.69693 50.4979C4.66344 50.5955 4.58449 50.6776 4.54023 50.7729C4.34286 51.2002 4.07133 51.6121 3.97205 52.0621C3.78903 52.8941 3.36678 53.6643 3.34405 54.5357C3.32793 54.6629 3.30193 54.7886 3.2663 54.9118C3.06598 55.837 3.06354 56.7938 3.25912 57.72C3.50075 58.7651 3.98999 59.7294 4.57851 60.6329C4.84885 61.0471 5.1156 61.4792 5.4601 61.828C6.17661 62.553 6.94097 63.2327 7.69337 63.9219C8.05581 64.254 8.42304 64.5826 8.89075 64.7742C9.02737 64.84 9.1555 64.9219 9.27233 65.0183C9.68741 65.3194 10.0798 65.6551 10.5164 65.9194C11.0678 66.2539 11.6563 66.5289 12.2269 66.8336C13.1312 67.3157 13.9973 67.899 14.9494 68.2514C15.6336 68.5037 16.319 68.7335 16.9817 69.0489C17.5352 69.2937 18.1019 69.5079 18.6791 69.6905C19.2306 69.881 19.7904 70.0453 20.3466 70.2226C20.9112 70.4024 21.5081 70.5214 22.032 70.7833C22.4602 70.9964 22.8909 71.0166 23.3311 71.0785C23.544 71.1083 23.7904 71.1012 23.9603 71.2083C24.4172 71.4952 24.9304 71.5345 25.434 71.6392C25.9375 71.744 26.4722 71.7356 26.9292 72.032C27.0289 72.0724 27.135 72.0946 27.2426 72.0975C27.7055 72.1785 28.1696 72.2534 28.6314 72.3392C28.9412 72.3963 29.2486 72.4713 29.5584 72.5296C30.1696 72.6451 30.8024 72.6927 31.3897 72.882C32.0249 73.0855 32.6697 73.1665 33.3192 73.2546C33.5297 73.2831 33.7426 73.3058 33.9508 73.351C34.9412 73.5653 35.9197 73.8807 36.9209 73.9843C38.4329 74.1414 39.9161 74.4438 41.4126 74.6771C41.9628 74.7628 42.519 74.814 43.0729 74.8783C44.1423 75.0032 45.2021 75.2294 46.287 75.2009C46.3081 75.2049 46.3289 75.2104 46.3492 75.2175C46.8707 75.3056 47.3899 75.433 47.9162 75.4734C49.3289 75.5818 50.7452 75.6508 52.1603 75.7401C52.5227 75.7627 52.8828 75.8199 53.2452 75.8329C53.7153 75.8508 54.1878 75.8139 54.6567 75.8484C55.3795 75.8883 56.0995 75.9677 56.8134 76.0865C57.0885 76.1377 57.2955 75.9663 57.6005 76.0532C58.1752 76.2175 58.7763 76.2696 59.3709 76.2067C60.1388 76.1186 60.89 76.1603 61.6508 76.1996C62.0276 76.2198 62.4367 76.0603 62.7836 76.1532C63.8637 76.4424 64.9558 76.2174 66.0396 76.3103C67.1927 76.4091 68.3602 76.34 69.5205 76.3377C69.8446 76.3377 70.1688 76.2912 70.4918 76.3008C71.3877 76.3281 72.2825 76.4615 73.1808 76.3103C73.3662 76.2654 73.5572 76.2478 73.7478 76.2579C74.7729 76.3936 75.7956 76.1996 76.8172 76.2401C77.7167 76.2758 78.6079 75.9508 79.511 76.1924C79.5752 76.2022 79.6406 76.2018 79.7048 76.1913C80.4524 76.1305 81.1976 76.0401 81.9464 76.0127C83.0732 75.971 84.2 75.9758 85.3244 75.8413C86.4345 75.708 87.5529 75.6294 88.6714 75.577C89.2395 75.5496 89.7802 75.3008 90.3616 75.4056C90.549 75.4436 90.7418 75.4485 90.9309 75.4199C91.651 75.2889 92.3652 75.1366 93.1068 75.2318C93.2795 75.235 93.4518 75.2141 93.6188 75.1699C93.9358 75.1187 94.2492 75.0378 94.5673 75.0128C95.5984 74.9306 96.632 74.8687 97.6643 74.7997C98.2169 74.3961 98.8879 74.7711 99.4848 74.5104C99.8569 74.3473 100.315 74.3223 100.732 74.3331C101.924 74.3616 103.075 74.1295 104.234 73.914C104.598 73.8614 104.966 73.8307 105.334 73.8224C105.462 73.8338 105.591 73.837 105.719 73.8319C106.795 73.6141 107.859 73.3188 108.944 73.1772C110.399 72.9879 111.851 72.8022 113.289 72.501C113.92 72.3689 114.563 72.2927 115.201 72.1963C115.959 72.082 116.718 71.9773 117.474 71.8559C117.618 71.8158 117.757 71.7624 117.891 71.6963C118.006 71.647 118.125 71.6084 118.247 71.5809C118.735 71.5023 119.225 71.438 119.713 71.363C120.339 71.2678 120.958 71.1309 121.582 71.025C122.606 70.8488 123.612 70.5667 124.629 70.3476C124.917 70.2857 125.225 70.3167 125.514 70.2524C126.248 70.0881 126.976 69.8917 127.706 69.7132C128.08 69.6227 128.459 69.5584 128.83 69.4596C129.72 69.2227 130.598 68.9442 131.495 68.737C133.017 68.3847 134.533 68.0061 136.027 67.5466C136.404 67.4312 136.812 67.3907 137.167 67.2312C137.604 67.036 138.02 66.8312 138.516 66.836C138.689 66.8194 138.857 66.773 139.014 66.6991C139.577 66.492 140.135 66.2682 140.701 66.067C141.878 65.648 143.073 65.2718 144.233 64.8111C144.821 64.5778 145.452 64.4635 146 64.0755C146.379 63.8076 146.923 63.7755 147.387 63.6184C147.543 63.566 147.821 63.6184 147.769 63.297C147.836 63.2725 147.906 63.2522 147.976 63.2362C148.406 63.1124 148.918 63.0946 149.253 62.8434C149.984 62.2958 150.951 62.2006 151.609 61.5471C151.648 61.5078 151.729 61.509 151.792 61.4947C152.501 61.3199 153.17 61.0107 153.762 60.5841C154.04 60.3924 154.321 60.1662 154.709 60.1138C154.989 60.0758 155.252 59.8758 155.51 59.727C155.769 59.5782 156.002 59.3877 156.263 59.2449C157.016 58.8318 157.784 58.4414 158.534 58.0211C158.733 57.9104 158.869 57.6914 159.066 57.5759C159.769 57.1617 160.487 56.7712 161.197 56.3677C161.365 56.2725 161.594 56.1963 161.668 56.0487C161.849 55.6916 162.211 55.6416 162.496 55.4654C162.622 55.388 162.786 55.3666 162.903 55.2809C163.233 55.0428 163.518 54.719 163.878 54.5512C164.256 54.375 164.46 53.9857 164.865 53.8619C164.944 53.8381 164.983 53.6953 165.048 53.6131C165.113 53.5117 165.193 53.4203 165.284 53.3417C166.168 52.7113 167.008 52.0221 167.798 51.2788C168.078 51.0181 168.396 50.799 168.695 50.5586C168.776 50.4953 168.851 50.4239 168.917 50.3455C169.162 50.0467 169.387 49.7301 169.647 49.4456C169.92 49.1456 170.237 48.8861 170.508 48.5849C170.657 48.4195 170.706 48.1362 170.877 48.0278C171.277 47.7743 171.543 47.4279 171.792 47.0434C172.012 46.7053 172.229 46.3303 172.543 46.097C172.908 45.8256 173.051 45.4578 173.171 45.0876C173.3 44.6912 173.545 44.3924 173.783 44.0769C173.894 43.9476 173.997 43.8125 174.093 43.6722C174.359 43.2306 174.561 42.7389 174.884 42.3449C175.224 41.9295 175.224 41.3759 175.564 40.9771C175.69 40.8337 175.79 40.6709 175.862 40.495C176.018 40.0986 176.148 39.6915 176.282 39.288C176.478 38.6987 176.679 38.1119 176.862 37.5179C176.968 37.1762 176.99 36.7989 177.143 36.4834C177.385 35.9847 177.419 35.4395 177.456 34.9288C177.496 34.3693 177.692 33.8574 177.751 33.3134C177.799 32.8742 177.908 32.4349 177.895 31.998C177.884 31.6052 177.856 31.2148 177.881 30.8207C177.895 30.6948 177.889 30.5677 177.865 30.4434C177.714 29.7994 177.506 29.1649 177.414 28.5138C177.362 28.1507 177.275 27.8495 177.033 27.5817C176.984 27.5117 176.946 27.4341 176.922 27.352C176.744 26.8996 176.63 26.408 176.378 26.0021C175.634 24.8021 174.82 23.6451 173.819 22.638C173.58 22.3976 173.512 21.9262 173.017 21.9833C172.985 21.9869 172.915 21.8928 172.909 21.8393C172.887 21.6369 172.674 21.5988 172.603 21.4917C172.269 20.9917 171.804 20.6632 171.338 20.3096C170.968 20.0287 170.686 19.6311 170.324 19.3359C169.901 18.9895 169.336 18.8228 169.026 18.3217C168.952 18.2419 168.855 18.1873 168.749 18.1657C168.194 17.9883 167.807 17.5562 167.336 17.2527C166.976 17.0206 166.658 16.7206 166.293 16.4968C165.585 16.0611 164.855 15.6599 164.139 15.2374C163.66 14.9552 163.207 14.6243 162.711 14.3767C161.637 13.8398 160.542 13.3458 159.459 12.8244C159.147 12.6744 158.863 12.3864 158.544 12.3459C157.714 12.2423 157.149 11.4579 156.27 11.5222C156.219 11.5257 156.165 11.4519 156.107 11.4222C155.842 11.2865 155.583 11.1329 155.308 11.0234C154.827 10.8329 154.337 10.6663 153.848 10.4984C152.716 10.1115 151.569 9.76633 150.455 9.33184C149.821 9.08543 149.149 9.01281 148.518 8.7164C147.806 8.3831 146.989 8.27239 146.215 8.07598C146.008 8.0236 145.781 8.04145 145.58 7.97717C144.702 7.69743 143.854 7.33198 142.924 7.2177C142.275 7.13795 141.632 6.98915 140.991 6.84868C140.509 6.74274 140.037 6.59275 139.556 6.47847C138.846 6.31063 138.131 6.02732 137.422 6.03803C136.73 6.04755 136.156 5.6952 135.48 5.68805C134.875 5.68091 134.277 5.42022 133.667 5.32856C132.76 5.19285 131.85 5.09048 130.954 4.88097C130.557 4.78812 130.124 4.82859 129.739 4.70836C129.254 4.54773 128.742 4.48461 128.233 4.52266C127.944 4.54647 127.547 4.65956 127.257 4.35958C127.192 4.29292 127.014 4.34053 126.889 4.32744C126.617 4.29649 126.344 4.26197 126.071 4.22626C125.837 4.19531 125.603 4.14293 125.369 4.13222C124.947 4.11436 124.522 4.13698 124.1 4.11317C123.782 4.09412 123.467 4.01199 123.148 3.9858C122.492 3.93223 121.836 3.89652 121.18 3.85485C120.374 3.80367 119.568 3.73463 118.759 3.70844C118.074 3.68582 117.386 3.74177 116.7 3.71439C114.535 3.63106 112.371 3.55011 110.204 3.56202C109.13 3.56797 108.055 3.57114 106.981 3.57154C106.234 3.57154 105.485 3.54178 104.737 3.55607C103.943 3.57035 103.151 3.63344 102.357 3.64654C101.997 3.65249 101.634 3.54654 101.277 3.56559C100.506 3.60606 99.7396 3.71915 98.9693 3.75843C97.553 3.82867 96.1355 3.862 94.7193 3.92033C93.8807 3.95485 93.0434 4.00484 92.2061 4.05722C91.218 4.11793 90.2312 4.18578 89.2443 4.25363C88.9991 4.2703 88.7551 4.30125 88.5099 4.32506L88.5051 4.32149Z" fill="#016DF3"/>
</svg>
