<svg width="272" height="64" viewBox="0 0 272 64" fill="none" xmlns="http://www.w3.org/2000/svg">
<ellipse cx="32" cy="24" rx="24" ry="24" transform="rotate(-90 32 24)" fill="url(#paint0_linear_1839_492)"/>
<ellipse cx="32" cy="40" rx="24" ry="24" transform="rotate(90 32 40)" fill="url(#paint1_linear_1839_492)"/>
<ellipse cx="40" cy="32" rx="24" ry="24" fill="url(#paint2_linear_1839_492)"/>
<ellipse cx="24" cy="32" rx="24" ry="24" transform="rotate(-180 24 32)" fill="url(#paint3_linear_1839_492)"/>
<path d="M237.669 39.892C238.757 45.652 243.301 48.916 249.253 48.916C253.669 48.916 256.869 46.868 258.469 44.244L263.205 46.932C260.389 51.284 255.525 54.164 249.125 54.164C238.821 54.164 231.973 46.932 231.973 37.332C231.973 27.86 238.757 20.5 248.741 20.5C258.405 20.5 264.677 28.436 264.677 37.396C264.677 38.228 264.613 39.06 264.485 39.892H237.669ZM248.741 25.748C242.725 25.748 238.565 29.46 237.669 35.028H259.045C258.085 28.692 253.541 25.748 248.741 25.748Z" fill="white"/>
<path d="M220.084 26.7079C222.132 22.2279 226.036 20.7559 230.068 20.7559V26.5799C225.268 26.3879 220.084 28.8199 220.084 36.3719V53.3319H214.516V21.3319H220.084V26.7079Z" fill="white"/>
<path d="M200.511 21.332H206.079V53.332H200.511V47.828C197.951 51.732 193.855 54.164 188.415 54.164C179.519 54.164 172.223 46.804 172.223 37.332C172.223 27.86 179.519 20.5 188.415 20.5C193.855 20.5 197.951 22.932 200.511 26.836V21.332ZM189.119 48.788C195.583 48.788 200.511 43.86 200.511 37.332C200.511 30.804 195.583 25.876 189.119 25.876C182.719 25.876 177.791 30.804 177.791 37.332C177.791 43.86 182.719 48.788 189.119 48.788Z" fill="white"/>
<path d="M153.827 20.4993C161.315 20.4993 166.243 25.4913 166.243 33.6833V53.3313H160.675V34.0033C160.675 28.7553 157.667 25.8113 152.739 25.8113C147.619 25.8113 143.459 28.8193 143.459 36.3713V53.3313H137.891V8.53125H143.459V25.9393C145.827 22.1633 149.347 20.4993 153.827 20.4993Z" fill="white"/>
<path d="M113.691 29.972C113.691 36.82 131.611 32.788 131.611 44.564C131.611 50.516 126.491 54.164 119.643 54.164C113.243 54.164 108.763 51.092 106.907 46.676L111.707 43.924C112.731 46.996 115.675 48.916 119.643 48.916C123.035 48.916 125.979 47.7 125.979 44.564C125.979 37.716 108.059 41.62 108.059 30.036C108.059 24.404 112.923 20.5 119.387 20.5C124.635 20.5 128.859 22.996 130.907 27.156L126.235 29.78C125.019 26.9 122.203 25.684 119.387 25.684C116.507 25.684 113.691 27.092 113.691 29.972Z" fill="white"/>
<path d="M84.2239 53.334V21.334H89.7919V53.334H84.2239Z" fill="white"/>
<path d="M87.0421 16.5261L83.0105 12.5629L87.0421 8.53125L91.0054 12.5629L87.0421 16.5261Z" fill="white"/>
<rect x="96.2825" y="47.7441" width="5.59047" height="5.59047" fill="white"/>
<defs>
<linearGradient id="paint0_linear_1839_492" x1="32" y1="0" x2="32" y2="48" gradientUnits="userSpaceOnUse">
<stop stop-color="white"/>
<stop offset="1" stop-color="white" stop-opacity="0"/>
</linearGradient>
<linearGradient id="paint1_linear_1839_492" x1="32" y1="16" x2="32" y2="64" gradientUnits="userSpaceOnUse">
<stop stop-color="white"/>
<stop offset="1" stop-color="white" stop-opacity="0"/>
</linearGradient>
<linearGradient id="paint2_linear_1839_492" x1="40" y1="8" x2="40" y2="56" gradientUnits="userSpaceOnUse">
<stop stop-color="white"/>
<stop offset="1" stop-color="white" stop-opacity="0"/>
</linearGradient>
<linearGradient id="paint3_linear_1839_492" x1="24" y1="8" x2="24" y2="56" gradientUnits="userSpaceOnUse">
<stop stop-color="white"/>
<stop offset="1" stop-color="white" stop-opacity="0"/>
</linearGradient>
</defs>
</svg>
