<svg width="180" height="180" viewBox="0 0 180 180" fill="none" xmlns="http://www.w3.org/2000/svg">
<g clip-path="url(#clip0_757_187)">
<path d="M110.581 69.0746C94.883 53.3769 76.9932 43.5481 62.1439 41.1439C64.5481 55.9932 74.3769 73.883 90.0746 89.5807L60.3762 119.279C34.2132 93.1163 24.243 60.6601 38.1023 46.8008L67.8008 17.1023C81.6601 3.243 114.116 13.2132 140.279 39.3762L110.581 69.0746Z" fill="#1D222A"/>
<path d="M140.279 39.3762L110.581 69.0746C94.883 53.3769 76.9932 43.5481 62.1439 41.1439C60.5176 31.1737 62.2146 22.6884 67.8008 17.1023C81.6601 3.243 114.116 13.2132 140.279 39.3762Z" fill="#016DF3"/>
<path d="M62.1439 41.1439C64.5481 55.9932 74.3769 73.883 90.0746 89.5807L60.3762 119.279C34.2132 93.1163 24.243 60.6601 38.1023 46.8008C43.6884 41.2146 52.1737 39.5176 62.1439 41.1439Z" fill="#E94C89"/>
<path d="M69.5686 110.087C85.2663 125.785 103.156 135.613 118.005 138.018C115.601 123.168 105.772 105.279 90.0746 89.5807L119.773 59.8823C145.936 86.0452 155.906 118.501 142.047 132.361L112.349 162.059C98.4892 175.918 66.033 165.948 39.8701 139.785L69.5686 110.087Z" fill="#1D222A"/>
<path d="M39.8701 139.785L69.5685 110.087C85.2663 125.785 103.156 135.613 118.005 138.018C119.632 147.988 117.935 156.473 112.349 162.059C98.4892 175.918 66.033 165.948 39.8701 139.785Z" fill="#07D79B"/>
<path d="M118.005 138.018C115.601 123.168 105.772 105.279 90.0746 89.5807L119.773 59.8823C145.936 86.0452 155.906 118.501 142.047 132.361C136.461 137.947 127.976 139.644 118.005 138.018Z" fill="#E94C89"/>
</g>
<rect x="1" y="1" width="178" height="178" rx="39" stroke="url(#paint0_linear_757_187)" stroke-width="2"/>
<defs>
<linearGradient id="paint0_linear_757_187" x1="171.5" y1="9.49998" x2="5.5" y2="170" gradientUnits="userSpaceOnUse">
<stop stop-color="#016DF3"/>
<stop offset="0.412982" stop-color="#4FE94C"/>
<stop offset="1" stop-color="#07D79B"/>
</linearGradient>
<clipPath id="clip0_757_187">
<rect width="180" height="180" rx="40" fill="white"/>
</clipPath>
</defs>
</svg>
