<svg width="24" height="24" viewBox="0 0 24 24" fill="none" xmlns="http://www.w3.org/2000/svg">
<g id="Frame 43">
<g id="Group 18">
<path id="Vector" d="M20.5405 21.6001C21.1256 21.6001 21.6001 21.1256 21.6001 20.5403V3.45964C21.6001 2.87434 21.1256 2.39996 20.5405 2.39996H3.45982C2.87445 2.39996 2.40015 2.87434 2.40015 3.45964V20.5403C2.40015 21.1256 2.87445 21.6001 3.45982 21.6001H20.5405Z" fill="#395185"/>
<path id="Vector_2" d="M15.648 21.6V14.1647H18.1438L18.5174 11.2671H15.648V9.417C15.648 8.57805 15.881 8.00632 17.0841 8.00632L18.6185 8.00565V5.41403C18.353 5.3787 17.4422 5.2998 16.3826 5.2998C14.1703 5.2998 12.6557 6.65018 12.6557 9.13012V11.2671H10.1536V14.1647H12.6557V21.6H15.648Z" fill="white"/>
</g>
</g>
</svg>
