<svg width="24" height="24" viewBox="0 0 24 24" fill="none" xmlns="http://www.w3.org/2000/svg">
<path d="M21.8057 10.0415H21.0002V10H12.0002V14H17.6518C16.8272 16.3285 14.6117 18.0001 12.0002 18.0001C8.68673 18.0001 6.00025 15.3136 6.00025 12.0001C6.00025 8.68657 8.68673 6.00006 12.0002 6.00006C13.5298 6.00006 14.9213 6.57706 15.9808 7.51957L18.8093 4.69106C17.0233 3.02656 14.6342 2.00006 12.0002 2.00006C6.47774 2.00006 2.00024 6.47756 2.00024 12.0001C2.00024 17.5225 6.47774 22 12.0002 22C17.5228 22 22.0003 17.5225 22.0003 12.0001C22.0003 11.3296 21.9313 10.675 21.8057 10.0415Z" fill="#FFC107"/>
<path d="M3.15308 7.34556L6.43858 9.75502C7.32758 7.55407 9.4806 6.00006 12.0001 6.00006C13.5296 6.00006 14.9211 6.57706 15.9806 7.51957L18.8091 4.69106C17.0231 3.02656 14.6341 2.00006 12.0001 2.00006C8.1591 2.00006 4.82807 4.16856 3.15308 7.34556Z" fill="#FF3D00"/>
<path d="M11.9999 22C14.5829 22 16.9299 21.0115 18.7044 19.404L15.6094 16.785C14.5717 17.5741 13.3037 18.001 11.9999 18C9.39893 18 7.19042 16.3414 6.35841 14.0269L3.09741 16.5394C4.75241 19.7779 8.11343 22 11.9999 22Z" fill="#4CAF50"/>
<path d="M21.8055 10.0415H21V9.99998H12V14H17.6515C17.2571 15.1082 16.5466 16.0766 15.608 16.7855L15.6095 16.7845L18.7045 19.4035C18.4855 19.6025 22 17 22 11.9999C22 11.3294 21.931 10.675 21.8055 10.0415Z" fill="#1976D2"/>
</svg>
